# Blender v2.78 (sub 0) OBJ File: 'blo22.blend'
# www.blender.org
mtllib blo.mtl
o Cube_Cube.001
v -0.022495 0.000608 -0.159334
v -0.022495 0.000608 0.162658
v -0.663763 0.000608 0.162658
v -0.663763 0.000608 -0.159334
v -0.022495 0.235500 -0.159333
v -0.022495 0.235500 0.162658
v -0.663763 0.235500 0.162658
v -0.663763 0.235500 -0.159334
v -0.022495 0.188396 0.162658
v -0.022495 0.044807 -0.159333
v -0.022495 0.044807 0.162658
v -0.663763 0.188396 0.162658
v -0.663763 0.188396 -0.159334
v -0.663763 0.044807 0.162658
v -0.663763 0.044807 -0.159334
v -0.022495 0.188396 -0.159333
v -0.058804 0.059331 -0.159333
v -0.058805 0.059331 0.162658
v -0.058804 0.176777 -0.159333
v -0.058805 0.176777 0.162658
v -0.625437 0.059331 0.162658
v -0.625437 0.059331 -0.159334
v -0.625437 0.176777 0.162658
v -0.625437 0.176777 -0.159334
v -0.625962 0.000608 -0.159334
v -0.624795 0.000608 0.162658
v -0.626453 0.235500 -0.159334
v -0.625286 0.235500 0.162658
v -0.059775 0.000608 -0.159334
v -0.058608 0.000608 0.162658
v -0.058733 0.235500 -0.159333
v -0.058733 0.235500 0.162658
v -0.412950 0.059331 0.162658
v -0.412950 0.176777 0.162658
v -0.271292 0.059331 0.162658
v -0.271292 0.176777 0.162658
v -0.094219 0.059331 0.162658
v -0.094219 0.176777 0.162658
v -0.235877 0.059331 0.162658
v -0.235877 0.176777 0.162658
v -0.448364 0.059331 0.162658
v -0.448364 0.176777 0.162658
v -0.590022 0.059331 0.162658
v -0.590022 0.176777 0.162658
v -0.235995 0.059331 -0.159334
v -0.236087 0.176777 -0.159333
v -0.271436 0.059331 -0.159334
v -0.271283 0.176777 -0.159333
v -0.589998 0.059331 -0.159334
v -0.590225 0.176777 -0.159334
v -0.412907 0.059331 -0.159334
v -0.094088 0.059331 -0.159333
v -0.094016 0.176777 -0.159333
v -0.412983 0.176777 -0.159333
v -0.448292 0.059331 -0.159334
v -0.448149 0.176777 -0.159333
vt 0.9120 0.0298
vt 0.6627 0.0307
vt 0.6627 0.0005
vt 0.9120 0.0005
vt 0.9120 0.0326
vt 0.9120 0.0615
vt 0.6627 0.0615
vt 0.6627 0.0317
vt 0.7505 0.5359
vt 0.5012 0.5359
vt 0.5012 0.5017
vt 0.7505 0.5017
vt 0.2498 0.8206
vt 0.2498 0.8571
vt 0.0005 0.8571
vt 0.0005 0.8206
vt 0.6120 0.3428
vt 0.8613 0.3428
vt 0.8613 0.3770
vt 0.6120 0.3770
vt 0.0005 0.8196
vt 0.0005 0.7831
vt 0.2498 0.7831
vt 0.2498 0.8196
vt 0.5012 0.6757
vt 0.7505 0.6757
vt 0.7505 0.7666
vt 0.5012 0.7666
vt 0.2498 0.8877
vt 0.0005 0.8877
vt 0.0005 0.8582
vt 0.2498 0.8582
vt 0.6120 0.4429
vt 0.8613 0.4429
vt 0.8613 0.4732
vt 0.6120 0.4732
vt 0.5002 0.8586
vt 0.2509 0.8586
vt 0.2509 0.7676
vt 0.5002 0.7676
vt 0.6120 0.4109
vt 0.8613 0.4109
vt 0.8613 0.4419
vt 0.6120 0.4419
vt 0.6120 0.4098
vt 0.6120 0.3781
vt 0.8613 0.3781
vt 0.8613 0.4098
vt 0.0005 0.2518
vt 0.2498 0.2509
vt 0.2498 0.6892
vt 0.0005 0.6901
vt 0.4401 0.2498
vt 0.0005 0.2498
vt 0.0014 0.0005
vt 0.4401 0.0005
vt 0.9120 0.0914
vt 0.6627 0.0914
vt 0.6627 0.0635
vt 0.9120 0.0626
vt 0.9120 0.0925
vt 0.9120 0.1205
vt 0.6627 0.1205
vt 0.6627 0.0925
vt 0.7827 0.4994
vt 0.8124 0.4904
vt 0.8125 0.5359
vt 0.7827 0.5359
vt 0.8332 0.2135
vt 0.8051 0.2135
vt 0.8050 0.1681
vt 0.8332 0.1771
vt 0.7515 0.4908
vt 0.7817 0.4904
vt 0.7817 0.5359
vt 0.7519 0.5250
vt 0.8332 0.1216
vt 0.8332 0.1558
vt 0.8050 0.1670
vt 0.8052 0.1216
vt 0.9413 0.5369
vt 0.9413 0.5817
vt 0.9143 0.5818
vt 0.8063 0.5821
vt 0.7793 0.5822
vt 0.6713 0.5826
vt 0.6387 0.5826
vt 0.5287 0.5826
vt 0.5012 0.5826
vt 0.5017 0.5371
vt 0.6910 0.9995
vt 0.2511 0.9995
vt 0.2509 0.9547
vt 0.2779 0.9546
vt 0.3858 0.9543
vt 0.4128 0.9542
vt 0.5208 0.9539
vt 0.5534 0.9539
vt 0.6634 0.9539
vt 0.6909 0.9539
vt 0.7822 0.7666
vt 0.7822 0.7301
vt 0.8104 0.7211
vt 0.8103 0.7666
vt 0.7812 0.7766
vt 0.7812 0.8131
vt 0.7523 0.8131
vt 0.7515 0.7676
vt 0.6627 0.2428
vt 0.6627 0.2135
vt 0.6970 0.2135
vt 0.7082 0.2432
vt 0.7822 0.7681
vt 0.8111 0.7676
vt 0.8111 0.8131
vt 0.7828 0.8023
vt 0.7800 0.6746
vt 0.7800 0.5837
vt 0.8073 0.5837
vt 0.8073 0.6746
vt 0.2509 0.9527
vt 0.2511 0.9079
vt 0.2781 0.9079
vt 0.3861 0.9076
vt 0.4131 0.9075
vt 0.5209 0.9072
vt 0.5536 0.9072
vt 0.6638 0.9073
vt 0.6912 0.9073
vt 0.6904 0.9529
vt 0.2509 0.8596
vt 0.7011 0.8596
vt 0.7008 0.9045
vt 0.6772 0.9049
vt 0.5770 0.9045
vt 0.5534 0.9049
vt 0.4545 0.9045
vt 0.4246 0.9049
vt 0.3235 0.9062
vt 0.2517 0.9062
vt 0.7515 0.7666
vt 0.7515 0.6757
vt 0.7790 0.6757
vt 0.7790 0.7666
vt 0.7515 0.6746
vt 0.7515 0.5837
vt 0.7790 0.5837
vt 0.7790 0.6746
vt 0.7481 0.2125
vt 0.7481 0.1216
vt 0.7756 0.1216
vt 0.7756 0.2125
vt 0.7197 0.1216
vt 0.7471 0.1216
vt 0.7471 0.2125
vt 0.7197 0.2125
vt 0.6120 0.3418
vt 0.6120 0.2509
vt 0.8613 0.2509
vt 0.8613 0.3418
vt 0.2509 0.3621
vt 0.5002 0.3619
vt 0.5002 0.4719
vt 0.2509 0.4717
vt 0.5012 0.5837
vt 0.7505 0.5837
vt 0.7505 0.6746
vt 0.5012 0.6746
vt 0.2509 0.4730
vt 0.5002 0.4729
vt 0.5002 0.5826
vt 0.2509 0.5826
vt 0.5509 0.2498
vt 0.4412 0.2498
vt 0.4411 0.0005
vt 0.5510 0.0005
vt 0.0005 0.7821
vt 0.0005 0.6912
vt 0.2498 0.6912
vt 0.2498 0.7821
vt 0.6617 0.2498
vt 0.5520 0.2498
vt 0.5521 0.0005
vt 0.6617 0.0005
vt 0.2509 0.6757
vt 0.5002 0.6757
vt 0.5002 0.7666
vt 0.2509 0.7666
vt 0.2509 0.6746
vt 0.2509 0.5837
vt 0.5002 0.5837
vt 0.5002 0.6746
vt 0.6109 0.5002
vt 0.5012 0.5002
vt 0.5012 0.2509
vt 0.6109 0.2509
vt 0.2509 0.2510
vt 0.5002 0.2509
vt 0.5002 0.3609
vt 0.2509 0.3607
vt 0.5012 0.7676
vt 0.7505 0.7676
vt 0.7505 0.8586
vt 0.5012 0.8586
vt 0.6628 0.2125
vt 0.6627 0.1216
vt 0.6902 0.1216
vt 0.6901 0.2125
vt 0.7767 0.2125
vt 0.7766 0.1216
vt 0.8040 0.1216
vt 0.8039 0.2125
vt 0.6914 0.2125
vt 0.6912 0.1216
vt 0.7187 0.1216
vt 0.7187 0.2125
vn 0.0000 -1.0000 0.0000
vn 0.0000 1.0000 0.0000
vn 1.0000 0.0000 0.0000
vn -1.0000 -0.0000 -0.0000
vn 0.3048 -0.9524 0.0000
vn 0.3714 0.9285 0.0000
vn -0.2901 -0.9570 -0.0000
vn -0.3544 0.9351 -0.0000
vn 0.0000 0.0000 1.0000
vn 0.0000 0.0000 -1.0000
vn 1.0000 0.0003 0.0000
vn -1.0000 0.0007 0.0002
vn 1.0000 0.0004 -0.0005
vn -1.0000 0.0003 -0.0005
vn 1.0000 0.0010 -0.0003
vn -1.0000 0.0006 -0.0004
usemtl Material.002
s off
f 25/1/1 26/2/1 3/3/1 4/4/1
f 27/5/2 8/6/2 7/7/2 28/8/2
f 10/9/3 11/10/3 2/11/3 1/12/3
f 8/13/4 13/14/4 12/15/4 7/16/4
f 14/17/4 15/18/4 4/19/4 3/20/4
f 6/21/3 9/22/3 16/23/3 5/24/3
f 18/25/3 17/26/3 19/27/3 20/28/3
f 16/29/5 9/30/5 20/31/5 19/32/5
f 11/33/6 10/34/6 17/35/6 18/36/6
f 22/37/4 21/38/4 23/39/4 24/40/4
f 12/41/7 13/42/7 24/43/7 23/44/7
f 14/45/8 21/46/8 22/47/8 15/48/8
f 29/49/1 30/50/1 26/51/1 25/52/1
f 31/53/2 27/54/2 28/55/2 32/56/2
f 1/57/1 2/58/1 30/59/1 29/60/1
f 5/61/2 31/62/2 32/63/2 6/64/2
f 12/65/9 23/66/9 28/67/9 7/68/9
f 6/69/9 32/70/9 20/71/9 9/72/9
f 3/73/9 26/74/9 21/75/9 14/76/9
f 2/77/9 11/78/9 18/79/9 30/80/9
f 30/81/9 18/82/9 37/83/9 39/84/9 35/85/9 33/86/9 41/87/9 43/88/9 21/89/9 26/90/9
f 32/91/9 28/92/9 23/93/9 44/94/9 42/95/9 34/96/9 36/97/9 40/98/9 38/99/9 20/100/9
f 5/101/10 16/102/10 19/103/10 31/104/10
f 13/105/10 8/106/10 27/107/10 24/108/10
f 25/109/10 4/110/10 15/111/10 22/112/10
f 1/113/10 29/114/10 17/115/10 10/116/10
f 19/117/10 17/118/10 52/119/10 53/120/10
f 25/121/10 22/122/10 49/123/10 55/124/10 51/125/10 47/126/10 45/127/10 52/128/10 17/129/10 29/130/10
f 27/131/10 31/132/10 19/133/10 53/134/10 46/135/10 48/136/10 54/137/10 56/138/10 50/139/10 24/140/10
f 36/141/9 35/142/9 39/143/9 40/144/9
f 42/145/9 41/146/9 33/147/9 34/148/9
f 38/149/9 37/150/9 18/151/9 20/152/9
f 21/153/9 43/154/9 44/155/9 23/156/9
f 34/157/11 33/158/11 51/159/11 54/160/11
f 40/161/1 46/162/1 53/163/1 38/164/1
f 36/165/12 48/166/12 47/167/12 35/168/12
f 34/169/1 54/170/1 48/171/1 36/172/1
f 39/173/2 37/174/2 52/175/2 45/176/2
f 40/177/13 39/178/13 45/179/13 46/180/13
f 33/181/2 35/182/2 47/183/2 51/184/2
f 38/185/14 53/186/14 52/187/14 37/188/14
f 44/189/15 43/190/15 49/191/15 50/192/15
f 43/193/2 41/194/2 55/195/2 49/196/2
f 44/197/1 50/198/1 56/199/1 42/200/1
f 42/201/16 56/202/16 55/203/16 41/204/16
f 46/205/10 45/206/10 47/207/10 48/208/10
f 54/209/10 51/210/10 55/211/10 56/212/10
f 50/213/10 49/214/10 22/215/10 24/216/10
