# Blender v2.79 (sub 0) OBJ File: 'tri.blend'
# www.blender.org
mtllib tri.mtl
o Plane.004_Plane.005
v -1.356537 0.000000 2.585918
v -0.965643 0.000000 2.814460
v -1.007524 0.000000 1.988974
v -0.616630 0.000000 2.217516
v -1.007524 0.105514 1.988974
v -1.356537 0.105514 2.585918
v -0.965643 0.105514 2.814460
v -0.616630 0.105514 2.217516
v -1.449921 0.000000 2.615502
v -0.945408 0.000000 2.910474
v -1.449921 0.146163 2.615502
v -0.945408 0.146163 2.910474
v -0.528194 0.000000 2.192439
v -1.024421 0.000000 1.902311
v -0.528194 0.137428 2.192439
v -1.024421 0.137428 1.902311
vn 0.0000 -1.0000 0.0000
vn 0.0000 1.0000 0.0000
vn -0.2190 0.9010 0.3745
vn 0.2464 0.8727 -0.4214
vn 0.8633 0.0000 0.5047
vn -0.8633 0.0000 -0.5047
vn -0.5047 0.0000 0.8633
vn 0.9785 0.0000 -0.2062
vn -0.3020 0.0000 -0.9533
vn 0.5047 0.0000 -0.8633
vn -0.9815 0.0000 0.1914
vn 0.2728 0.0000 0.9621
vn -0.4194 0.8726 -0.2502
vn 0.4372 0.8632 0.2527
vn -0.8588 0.0000 -0.5124
vn 0.8646 0.0000 0.5024
usemtl Material.002
s off
f 1//1 3//1 4//1 2//1
f 6//2 7//2 8//2 5//2
f 5//3 8//3 15//3 16//3
f 7//4 6//4 11//4 12//4
f 2//5 4//5 8//5 7//5
f 3//6 1//6 6//6 5//6
f 9//7 10//7 12//7 11//7
f 1//1 2//1 10//1 9//1
f 2//8 7//8 12//8 10//8
f 6//9 1//9 9//9 11//9
f 13//10 14//10 16//10 15//10
f 4//1 3//1 14//1 13//1
f 3//11 5//11 16//11 14//11
f 8//12 4//12 13//12 15//12
f 12//13 15//13 8//13 7//13
f 16//14 11//14 6//14 5//14
f 16//15 14//15 9//15 11//15
f 3//1 1//1 9//1 14//1
f 13//16 15//16 12//16 10//16
f 2//1 4//1 13//1 10//1
o Plane.002_Plane.003
v -0.427668 0.000000 2.525630
v -0.314911 0.000000 2.630269
v -0.209652 0.000000 2.290697
v -0.096894 0.000000 2.395336
v -0.209652 0.086050 2.290697
v -0.427668 0.086050 2.525630
v -0.314911 0.086050 2.630269
v -0.096894 0.086050 2.395336
v 0.068255 0.000000 2.928361
v 0.191467 0.000000 2.836261
v -0.022620 0.000000 2.800969
v 0.100591 0.000000 2.708869
v -0.022620 0.086050 2.800969
v 0.068255 0.086050 2.928361
v 0.191467 0.086050 2.836261
v 0.100591 0.086050 2.708869
vn 0.0000 -1.0000 0.0000
vn 0.0000 1.0000 -0.0000
vn -0.7330 0.0000 -0.6802
vn 0.6802 0.0000 -0.7330
vn -0.6802 0.0000 0.7330
vn 0.7330 0.0000 0.6802
vn -0.8141 0.0000 0.5807
vn -0.5987 0.0000 -0.8010
vn 0.5987 0.0000 0.8010
vn 0.8141 0.0000 -0.5807
usemtl Material.002
s off
f 17//17 19//17 20//17 18//17
f 22//18 23//18 24//18 21//18
f 19//19 17//19 22//19 21//19
f 20//20 19//20 21//20 24//20
f 17//21 18//21 23//21 22//21
f 18//22 20//22 24//22 23//22
f 25//17 27//17 28//17 26//17
f 30//18 31//18 32//18 29//18
f 27//23 25//23 30//23 29//23
f 28//24 27//24 29//24 32//24
f 25//25 26//25 31//25 30//25
f 26//26 28//26 32//26 31//26
o Plane.001_Plane.002
v 0.890431 0.000000 0.897655
v 1.236033 0.000000 1.149808
v 0.991434 0.000000 0.770550
v 1.337036 0.000000 0.927742
v 0.991434 0.113735 0.770550
v 0.890431 0.113735 0.897655
v 1.236033 0.113735 1.149808
v 1.337036 0.113735 0.927742
v 1.390815 0.096435 1.170284
v 1.686690 0.012330 0.947720
v 1.253256 0.135537 0.972638
v 1.549131 0.051432 0.750074
v 1.284354 0.244937 0.972638
v 1.421913 0.205835 1.170284
v 1.717788 0.121731 0.947720
v 1.580229 0.160833 0.750074
vn 0.0000 -1.0000 0.0000
vn 0.0000 1.0000 0.0000
vn 0.9103 0.0000 0.4140
vn -0.7829 0.0000 -0.6221
vn 0.4140 0.0000 -0.9103
vn -0.5894 0.0000 0.8078
vn -0.2734 -0.9619 -0.0000
vn 0.2734 0.9619 -0.0000
vn 0.7793 -0.2215 -0.5862
vn -0.7793 0.2215 0.5862
vn -0.5639 0.1603 -0.8102
vn 0.5639 -0.1603 0.8102
usemtl Material.002
s off
f 33//27 35//27 36//27 34//27
f 38//28 39//28 40//28 37//28
f 34//29 36//29 40//29 39//29
f 35//30 33//30 38//30 37//30
f 36//31 35//31 37//31 40//31
f 33//32 34//32 39//32 38//32
f 41//33 43//33 44//33 42//33
f 46//34 47//34 48//34 45//34
f 42//35 44//35 48//35 47//35
f 43//36 41//36 46//36 45//36
f 44//37 43//37 45//37 48//37
f 41//38 42//38 47//38 46//38
o Plane_Plane.001
v 0.013949 0.000000 0.025061
v 0.637563 0.000000 -0.243138
v -0.166195 0.000000 -0.393809
v 0.457419 0.000000 -0.662008
v -0.166195 0.225459 -0.393809
v 0.013949 0.225459 0.025061
v 0.637563 0.225459 -0.243138
v 0.457419 0.225459 -0.662008
v -0.956473 0.000000 0.053483
v -0.846159 0.000000 -0.616334
v -1.274846 0.000000 -0.020613
v -1.164531 0.000000 -0.690430
v -1.274846 0.178510 -0.020613
v -0.956473 0.178510 0.053483
v -0.846159 0.178510 -0.616334
v -1.164531 0.178510 -0.690430
v 0.604012 0.000000 2.033385
v 0.940320 0.000000 2.220184
v 0.736856 0.000000 1.794216
v 1.073164 0.000000 1.981015
v 0.736856 0.161212 1.794216
v 0.604012 0.161212 2.033385
v 0.940320 0.192548 2.220184
v 1.073164 0.192548 1.981015
vn 0.0000 -1.0000 0.0000
vn 0.0000 1.0000 -0.0000
vn 0.9186 0.0000 -0.3951
vn -0.9186 0.0000 0.3951
vn -0.3951 0.0000 -0.9186
vn 0.3951 0.0000 0.9186
vn 0.2267 0.0000 -0.9740
vn -0.2267 0.0000 0.9740
vn -0.9867 0.0000 -0.1625
vn 0.9867 0.0000 0.1625
vn -0.0710 0.9967 -0.0394
vn -0.8742 0.0000 -0.4856
vn 0.4856 0.0000 -0.8742
vn -0.4856 0.0000 0.8742
vn 0.8742 0.0000 0.4856
usemtl Material.002
s off
f 49//39 51//39 52//39 50//39
f 54//40 55//40 56//40 53//40
f 50//41 52//41 56//41 55//41
f 51//42 49//42 54//42 53//42
f 52//43 51//43 53//43 56//43
f 49//44 50//44 55//44 54//44
f 57//39 59//39 60//39 58//39
f 62//40 63//40 64//40 61//40
f 58//45 60//45 64//45 63//45
f 59//46 57//46 62//46 61//46
f 60//47 59//47 61//47 64//47
f 57//48 58//48 63//48 62//48
f 65//39 67//39 68//39 66//39
f 70//49 71//49 72//49 69//49
f 67//50 65//50 70//50 69//50
f 68//51 67//51 69//51 72//51
f 65//52 66//52 71//52 70//52
f 66//53 68//53 72//53 71//53
o Cube.001_Cube.002
v 2.185814 3.072527 -0.077945
v 2.185814 2.752963 -0.077945
v 2.185814 3.072527 0.027941
v 2.185814 2.752963 0.027941
v 0.879894 3.072527 -0.077945
v 0.879894 2.752963 -0.077945
v 0.879894 3.072527 0.027941
v 0.879894 2.752963 0.027941
v -1.122975 3.072527 -0.077945
v -1.122975 2.752963 -0.077945
v -1.122975 3.072527 0.027941
v -1.122975 2.752963 0.027941
v -2.312771 3.072527 -0.077945
v -2.312771 2.752963 -0.077945
v -2.312771 3.072527 0.027941
v -2.312771 2.752963 0.027941
vn 1.0000 0.0000 0.0000
vn 0.0000 0.0000 1.0000
vn -1.0000 0.0000 0.0000
vn 0.0000 0.0000 -1.0000
vn 0.0000 1.0000 0.0000
vn 0.0000 -1.0000 0.0000
usemtl Material.002
s off
f 73//54 75//54 76//54 74//54
f 75//55 79//55 80//55 76//55
f 79//56 77//56 78//56 80//56
f 77//57 73//57 74//57 78//57
f 75//58 73//58 77//58 79//58
f 80//59 78//59 74//59 76//59
f 81//54 83//54 84//54 82//54
f 83//55 87//55 88//55 84//55
f 87//56 85//56 86//56 88//56
f 85//57 81//57 82//57 86//57
f 83//58 81//58 85//58 87//58
f 88//59 86//59 82//59 84//59
o Cube_Cube.001
v 2.535996 3.877110 -0.170879
v 2.383140 3.632830 -0.184713
v 2.494569 3.877110 0.286856
v 2.341713 3.632830 0.273022
v 0.366009 3.877110 -0.367273
v 0.366009 3.632830 -0.367273
v 0.324581 3.877110 0.090461
v 0.324581 3.632830 0.090461
v 2.430398 3.902357 0.234066
v 2.465603 3.902357 -0.154913
v 0.328799 3.902357 0.043861
v 0.364003 3.902357 -0.345118
v 2.430398 3.923119 0.234066
v 2.465603 3.923119 -0.154913
v 0.328799 3.923119 0.043861
v 0.364003 3.923119 -0.345118
v 2.740723 3.938544 0.312728
v 2.783061 3.938544 -0.155069
v 0.324259 3.938544 0.094026
v 0.366597 3.938544 -0.373771
v 2.958279 4.176874 0.332418
v 3.000617 4.176874 -0.135379
v 0.324259 4.176874 0.094026
v 0.366597 4.176874 -0.373771
vn 0.8433 -0.5320 0.0763
vn -0.0901 0.0000 0.9959
vn -0.9959 0.0000 -0.0901
vn 0.0901 0.0000 -0.9959
vn -0.0428 0.8801 0.4729
vn 0.0000 -1.0000 0.0000
vn 0.3437 0.9386 0.0311
vn 0.0676 0.6611 -0.7472
vn 0.9959 0.0000 0.0901
vn 0.0485 -0.9988 0.0044
vn 0.0426 -0.8813 -0.4706
vn -0.0264 -0.9562 0.2916
vn 0.0000 1.0000 -0.0000
vn 0.7342 -0.6757 0.0664
usemtl Material.002
s off
f 89//60 91//60 92//60 90//60
f 91//61 95//61 96//61 92//61
f 95//62 93//62 94//62 96//62
f 93//63 89//63 90//63 94//63
f 91//64 97//64 99//64 95//64
f 96//65 94//65 90//65 92//65
f 100//63 104//63 102//63 98//63
f 89//66 98//66 97//66 91//66
f 95//62 99//62 100//62 93//62
f 93//67 100//67 98//67 89//67
f 103//62 107//62 108//62 104//62
f 97//61 101//61 103//61 99//61
f 99//62 103//62 104//62 100//62
f 98//68 102//68 101//68 97//68
f 107//62 111//62 112//62 108//62
f 102//69 106//69 105//69 101//69
f 104//70 108//70 106//70 102//70
f 101//71 105//71 107//71 103//71
f 109//72 110//72 112//72 111//72
f 106//73 110//73 109//73 105//73
f 108//63 112//63 110//63 106//63
f 105//61 109//61 111//61 107//61
o Circle
v -1.402840 0.000000 -0.236478
v -1.442419 0.000000 -0.232580
v -1.480477 0.000000 -0.221035
v -1.515552 0.000000 -0.202287
v -1.546295 0.000000 -0.177057
v -1.571525 0.000000 -0.146314
v -1.590273 0.000000 -0.111240
v -1.601818 0.000000 -0.073181
v -1.605716 0.000000 -0.033602
v -1.601818 0.000000 0.005977
v -1.590273 0.000000 0.044035
v -1.571525 0.000000 0.079110
v -1.546295 0.000000 0.109853
v -1.515552 0.000000 0.135083
v -1.480477 0.000000 0.153831
v -1.442419 0.000000 0.165376
v -1.402840 0.000000 0.169274
v -1.363261 0.000000 0.165376
v -1.325202 0.000000 0.153831
v -1.290128 0.000000 0.135083
v -1.259385 0.000000 0.109853
v -1.234154 0.000000 0.079109
v -1.215407 0.000000 0.044035
v -1.203862 0.000000 0.005977
v -1.199964 0.000000 -0.033603
v -1.203862 0.000000 -0.073181
v -1.215407 0.000000 -0.111240
v -1.234155 0.000000 -0.146314
v -1.259385 0.000000 -0.177058
v -1.290128 0.000000 -0.202288
v -1.325203 0.000000 -0.221035
v -1.363261 0.000000 -0.232580
v -1.402840 3.624299 -0.236478
v -1.442419 3.624299 -0.232580
v -1.480477 3.624299 -0.221035
v -1.515552 3.624299 -0.202287
v -1.546295 3.624299 -0.177057
v -1.571525 3.624299 -0.146314
v -1.590273 3.624299 -0.111240
v -1.601818 3.624299 -0.073181
v -1.605716 3.624299 -0.033602
v -1.601818 3.624299 0.005977
v -1.590273 3.624299 0.044035
v -1.571525 3.624299 0.079110
v -1.546295 3.624299 0.109853
v -1.515552 3.624299 0.135083
v -1.480477 3.624299 0.153831
v -1.442419 3.624299 0.165376
v -1.402840 3.624299 0.169274
v -1.363261 3.624299 0.165376
v -1.325202 3.624299 0.153831
v -1.290128 3.624299 0.135083
v -1.259385 3.624299 0.109853
v -1.234154 3.624299 0.079109
v -1.215407 3.624299 0.044035
v -1.203862 3.624299 0.005977
v -1.199964 3.624299 -0.033603
v -1.203862 3.624299 -0.073181
v -1.215407 3.624299 -0.111240
v -1.234155 3.624299 -0.146314
v -1.259385 3.624299 -0.177058
v -1.290128 3.624299 -0.202288
v -1.325203 3.624299 -0.221035
v -1.363261 3.624299 -0.232580
v 1.374705 0.000000 -0.236478
v 1.335125 0.000000 -0.232580
v 1.297067 0.000000 -0.221035
v 1.261993 0.000000 -0.202287
v 1.231250 0.000000 -0.177057
v 1.206019 0.000000 -0.146314
v 1.187271 0.000000 -0.111240
v 1.175727 0.000000 -0.073181
v 1.171829 0.000000 -0.033602
v 1.175727 0.000000 0.005977
v 1.187271 0.000000 0.044035
v 1.206019 0.000000 0.079110
v 1.231250 0.000000 0.109853
v 1.261993 0.000000 0.135083
v 1.297067 0.000000 0.153831
v 1.335125 0.000000 0.165376
v 1.374705 0.000000 0.169274
v 1.414284 0.000000 0.165376
v 1.452342 0.000000 0.153831
v 1.487417 0.000000 0.135083
v 1.518160 0.000000 0.109853
v 1.543390 0.000000 0.079109
v 1.562138 0.000000 0.044035
v 1.573682 0.000000 0.005977
v 1.577580 0.000000 -0.033603
v 1.573682 0.000000 -0.073181
v 1.562137 0.000000 -0.111240
v 1.543390 0.000000 -0.146314
v 1.518159 0.000000 -0.177058
v 1.487416 0.000000 -0.202288
v 1.452342 0.000000 -0.221035
v 1.414283 0.000000 -0.232580
v 1.374705 3.624299 -0.236478
v 1.335125 3.624299 -0.232580
v 1.297067 3.624299 -0.221035
v 1.261993 3.624299 -0.202287
v 1.231250 3.624299 -0.177057
v 1.206019 3.624299 -0.146314
v 1.187271 3.624299 -0.111240
v 1.175727 3.624299 -0.073181
v 1.171829 3.624299 -0.033602
v 1.175727 3.624299 0.005977
v 1.187271 3.624299 0.044035
v 1.206019 3.624299 0.079110
v 1.231250 3.624299 0.109853
v 1.261993 3.624299 0.135083
v 1.297067 3.624299 0.153831
v 1.335125 3.624299 0.165376
v 1.374705 3.624299 0.169274
v 1.414284 3.624299 0.165376
v 1.452342 3.624299 0.153831
v 1.487417 3.624299 0.135083
v 1.518160 3.624299 0.109853
v 1.543390 3.624299 0.079109
v 1.562138 3.624299 0.044035
v 1.573682 3.624299 0.005977
v 1.577580 3.624299 -0.033603
v 1.573682 3.624299 -0.073181
v 1.562137 3.624299 -0.111240
v 1.543390 3.624299 -0.146314
v 1.518159 3.624299 -0.177058
v 1.487416 3.624299 -0.202288
v 1.452342 3.624299 -0.221035
v 1.414283 3.624299 -0.232580
vn 0.0000 -1.0000 0.0000
vn 0.0000 1.0000 -0.0000
vn -0.4714 0.0000 0.8819
vn -0.0980 0.0000 -0.9952
vn 0.7730 0.0000 -0.6344
vn -0.2903 0.0000 0.9569
vn -0.2903 0.0000 -0.9569
vn 0.6344 0.0000 -0.7730
vn -0.0980 0.0000 0.9952
vn -0.4714 0.0000 -0.8819
vn 0.4714 0.0000 -0.8819
vn 0.0980 0.0000 0.9952
vn -0.6344 0.0000 -0.7730
vn 0.2903 0.0000 -0.9569
vn 0.2903 0.0000 0.9569
vn -0.7730 0.0000 -0.6344
vn 0.0980 0.0000 -0.9952
vn 0.4714 0.0000 0.8819
vn -0.8819 0.0000 -0.4714
vn 0.6344 0.0000 0.7730
vn -0.9569 0.0000 -0.2903
vn 0.7730 0.0000 0.6344
vn -0.9952 0.0000 -0.0980
vn 0.8819 0.0000 0.4714
vn -0.9952 0.0000 0.0980
vn 0.9569 0.0000 0.2903
vn -0.9569 0.0000 0.2903
vn 0.9952 0.0000 0.0980
vn -0.8819 0.0000 0.4714
vn 0.9952 0.0000 -0.0980
vn -0.7730 0.0000 0.6344
vn 0.9569 0.0000 -0.2903
vn -0.6344 0.0000 0.7730
vn 0.8819 0.0000 -0.4714
usemtl Material.002
s off
f 114//74 113//74 144//74 143//74 142//74 141//74 140//74 139//74 138//74 137//74 136//74 135//74 134//74 133//74 132//74 131//74 130//74 129//74 128//74 127//74 126//74 125//74 124//74 123//74 122//74 121//74 120//74 119//74 118//74 117//74 116//74 115//74
f 146//75 147//75 148//75 149//75 150//75 151//75 152//75 153//75 154//75 155//75 156//75 157//75 158//75 159//75 160//75 161//75 162//75 163//75 164//75 165//75 166//75 167//75 168//75 169//75 170//75 171//75 172//75 173//75 174//75 175//75 176//75 145//75
f 126//76 127//76 159//76 158//76
f 113//77 114//77 146//77 145//77
f 140//78 141//78 173//78 172//78
f 127//79 128//79 160//79 159//79
f 114//80 115//80 147//80 146//80
f 141//81 142//81 174//81 173//81
f 128//82 129//82 161//82 160//82
f 115//83 116//83 148//83 147//83
f 142//84 143//84 175//84 174//84
f 129//85 130//85 162//85 161//85
f 116//86 117//86 149//86 148//86
f 143//87 144//87 176//87 175//87
f 130//88 131//88 163//88 162//88
f 117//89 118//89 150//89 149//89
f 144//90 113//90 145//90 176//90
f 131//91 132//91 164//91 163//91
f 118//92 119//92 151//92 150//92
f 132//93 133//93 165//93 164//93
f 119//94 120//94 152//94 151//94
f 133//95 134//95 166//95 165//95
f 120//96 121//96 153//96 152//96
f 134//97 135//97 167//97 166//97
f 121//98 122//98 154//98 153//98
f 135//99 136//99 168//99 167//99
f 122//100 123//100 155//100 154//100
f 136//101 137//101 169//101 168//101
f 123//102 124//102 156//102 155//102
f 137//103 138//103 170//103 169//103
f 124//104 125//104 157//104 156//104
f 138//105 139//105 171//105 170//105
f 125//106 126//106 158//106 157//106
f 139//107 140//107 172//107 171//107
f 178//74 177//74 208//74 207//74 206//74 205//74 204//74 203//74 202//74 201//74 200//74 199//74 198//74 197//74 196//74 195//74 194//74 193//74 192//74 191//74 190//74 189//74 188//74 187//74 186//74 185//74 184//74 183//74 182//74 181//74 180//74 179//74
f 210//75 211//75 212//75 213//75 214//75 215//75 216//75 217//75 218//75 219//75 220//75 221//75 222//75 223//75 224//75 225//75 226//75 227//75 228//75 229//75 230//75 231//75 232//75 233//75 234//75 235//75 236//75 237//75 238//75 239//75 240//75 209//75
f 190//76 191//76 223//76 222//76
f 177//77 178//77 210//77 209//77
f 204//78 205//78 237//78 236//78
f 191//79 192//79 224//79 223//79
f 178//80 179//80 211//80 210//80
f 205//81 206//81 238//81 237//81
f 192//82 193//82 225//82 224//82
f 179//83 180//83 212//83 211//83
f 206//84 207//84 239//84 238//84
f 193//85 194//85 226//85 225//85
f 180//86 181//86 213//86 212//86
f 207//87 208//87 240//87 239//87
f 194//88 195//88 227//88 226//88
f 181//89 182//89 214//89 213//89
f 208//90 177//90 209//90 240//90
f 195//91 196//91 228//91 227//91
f 182//92 183//92 215//92 214//92
f 196//93 197//93 229//93 228//93
f 183//94 184//94 216//94 215//94
f 197//95 198//95 230//95 229//95
f 184//96 185//96 217//96 216//96
f 198//97 199//97 231//97 230//97
f 185//98 186//98 218//98 217//98
f 199//99 200//99 232//99 231//99
f 186//100 187//100 219//100 218//100
f 200//101 201//101 233//101 232//101
f 187//102 188//102 220//102 219//102
f 201//103 202//103 234//103 233//103
f 188//104 189//104 221//104 220//104
f 202//105 203//105 235//105 234//105
f 189//106 190//106 222//106 221//106
f 203//107 204//107 236//107 235//107
o Cube.002_Cube.003
v -0.599603 0.475872 -0.023667
v -0.786627 0.474002 0.195987
v -0.597396 0.016276 -0.025702
v -0.784420 0.014406 0.193952
v 0.053660 0.469806 2.054945
v -0.179380 0.468363 2.128180
v 0.055866 0.010210 2.052910
v -0.177174 0.008767 2.126145
v -0.552949 0.063024 0.032445
v -0.554824 0.453585 0.034174
v 0.079726 0.057149 2.045548
v 0.077851 0.447710 2.047277
v -0.533142 0.063147 0.026220
v -0.535017 0.453707 0.027949
v 0.123642 0.057272 2.077925
v 0.122872 0.447832 2.080357
v -0.612973 0.013749 -0.280233
v -0.615228 0.483448 -0.278154
v 0.134220 0.006994 2.066293
v 0.133294 0.476693 2.069218
v -0.451104 0.015765 -0.560080
v -0.453359 0.485464 -0.558001
v 0.296131 0.008401 1.891410
v 0.295206 0.478100 1.894335
vn -0.7614 -0.0008 -0.6483
vn 0.0048 -1.0000 -0.0044
vn 0.2998 -0.0028 0.9540
vn -0.0048 1.0000 0.0044
vn 0.8419 -0.4696 -0.2659
vn -0.9540 -0.0059 0.2998
vn -0.0057 1.0000 0.0047
vn 0.7919 0.0065 -0.6106
vn 0.6271 0.7542 -0.1949
vn 0.7338 -0.0028 0.6793
vn 0.0058 -1.0000 -0.0047
vn -0.5927 -0.0063 0.8054
vn -0.2998 0.0028 -0.9540
vn 0.7338 -0.0028 0.6794
vn -0.9675 -0.0058 0.2530
vn -0.8441 0.4626 0.2711
vn -0.9112 -0.2925 0.2900
vn 0.9565 0.0048 -0.2917
vn -0.8656 -0.0019 -0.5007
vn -0.0045 1.0000 0.0043
vn 0.0045 -1.0000 -0.0043
usemtl Material.002
s off
f 241//108 243//108 244//108 242//108
f 243//109 247//109 248//109 244//109
f 247//110 245//110 246//110 248//110
f 245//111 241//111 242//111 246//111
f 243//112 249//112 251//112 247//112
f 248//113 246//113 242//113 244//113
f 252//114 256//114 254//114 250//114
f 241//115 250//115 249//115 243//115
f 247//110 251//110 252//110 245//110
f 245//116 252//116 250//116 241//116
f 255//117 259//117 260//117 256//117
f 249//118 253//118 255//118 251//118
f 251//119 255//119 256//119 252//119
f 250//120 254//120 253//120 249//120
f 259//121 263//121 264//121 260//121
f 254//122 258//122 257//122 253//122
f 256//123 260//123 258//123 254//123
f 253//124 257//124 259//124 255//124
f 261//125 262//125 264//125 263//125
f 258//126 262//126 261//126 257//126
f 260//127 264//127 262//127 258//127
f 257//128 261//128 263//128 259//128
o Plane.003_Plane.004
v 0.542534 0.000000 2.677267
v 0.369903 0.000000 2.883910
v 0.681332 0.000000 2.793219
v 0.508702 0.000000 2.999863
v 0.681332 0.142347 2.793219
v 0.542534 0.142347 2.677267
v 0.369903 0.142347 2.883910
v 0.508702 0.142347 2.999863
v 1.181607 0.000000 2.526309
v 1.385751 0.000000 3.173727
v 1.499118 0.000000 2.448604
v 1.703262 0.000000 3.096022
v 1.499118 0.178510 2.448604
v 1.181607 0.178510 2.526309
v 1.385751 0.178510 3.173727
v 1.703262 0.178510 3.096022
v -1.104942 0.000000 1.464794
v -1.489363 0.000000 1.450052
v -1.115426 0.000000 1.738179
v -1.499847 0.000000 1.723437
v -1.115426 0.161212 1.738179
v -1.104942 0.161212 1.464794
v -1.489363 0.192548 1.450052
v -1.499847 0.192548 1.723437
vn 0.0000 -1.0000 0.0000
vn 0.0000 1.0000 0.0000
vn -0.6411 0.0000 0.7674
vn 0.6411 0.0000 -0.7674
vn 0.7674 0.0000 0.6411
vn -0.7674 0.0000 -0.6411
vn 0.2377 0.0000 0.9713
vn -0.2377 0.0000 -0.9713
vn 0.9537 0.0000 -0.3007
vn -0.9537 0.0000 0.3007
vn 0.0811 0.9967 0.0031
vn 0.9993 0.0000 0.0383
vn -0.0383 0.0000 0.9993
vn 0.0383 0.0000 -0.9993
vn -0.9993 0.0000 -0.0383
usemtl Material.002
s off
f 265//129 267//129 268//129 266//129
f 270//130 271//130 272//130 269//130
f 266//131 268//131 272//131 271//131
f 267//132 265//132 270//132 269//132
f 268//133 267//133 269//133 272//133
f 265//134 266//134 271//134 270//134
f 273//129 275//129 276//129 274//129
f 278//130 279//130 280//130 277//130
f 274//135 276//135 280//135 279//135
f 275//136 273//136 278//136 277//136
f 276//137 275//137 277//137 280//137
f 273//138 274//138 279//138 278//138
f 281//129 283//129 284//129 282//129
f 286//139 287//139 288//139 285//139
f 283//140 281//140 286//140 285//140
f 284//141 283//141 285//141 288//141
f 281//142 282//142 287//142 286//142
f 282//143 284//143 288//143 287//143
